:SAMPLES-PER-SECOND 30
:FULLY-SPECIFIED
:DEGREES
227
root  -14.8786 39.0094 6.78628 169.638 82.333 -177.356
RightUpLeg  -10.7435 2.47835 -2.24336
RightLeg  27.964 2.70744 1.4424
RightFoot  -3.59704 -0.296635 4.01973
RightToes  2.91037e-010 0 -3.6325e-017
Spine  21.5145 -1.96393 2.5604
Spine1  9.9964 -1.79121 -1.60383
HEad  -12.6418 -1.45226 -0.815391
LeftShoulder1  -0.0679025 3.69622 -29.1051
LeftArm  -10.9066 13.1237 -30.5779
LeftForeArm  78.63 -79.2084 -93.6277
LeftHand  0.102352 1.1822 -3.05703
RightShoulder  -0.571938 -5.16509 27.6754
RightArm  -8.65483 -17.5257 36.1854
RightForeArm  86.9602 76.6074 120.865
RightHand  -0.354682 4.26712 -4.53133
LeftUpLeg  15.0989 9.33086 0.955306
LeftLeg  18.1954 -4.16273 -1.2442
LeftFoot  -17.176 0.51934 8.1388
LeftToes  -7.53974e-010 3.3384e-011 -1.25048e-011
228
root  -12.9949 38.8167 6.68685 167.538 82.2725 -179.396
RightUpLeg  -9.81785 0.419328 -2.31265
RightLeg  12.6168 1.57855 -0.170826
RightFoot  -4.09499 -0.330403 4.77456
RightToes  2.91037e-010 0 -3.6325e-017
Spine  20.5641 -1.76076 1.48202
Spine1  10.3079 -2.08422 0.166835
HEad  -12.5282 -1.42298 -1.19159
LeftShoulder1  -0.120991 3.84312 -29.5353
LeftArm  -11.1385 12.8503 -31.0614
LeftForeArm  80.2706 -79.2104 -94.847
LeftHand  0.0880401 0.774474 -2.33801
RightShoulder  -0.569507 -5.15853 27.6464
RightArm  -9.05246 -18.1506 36.2142
RightForeArm  90.3091 76.0153 124.692
RightHand  -0.300302 3.64565 -4.12276
LeftUpLeg  19.666 10.3906 2.43729
LeftLeg  16.0503 -5.8488 -2.01017
LeftFoot  -18.4594 0.595372 7.7914
LeftToes  -7.53974e-010 3.3384e-011 -1.25048e-011
229
root  -11.0732 38.4836 6.81507 161.359 82.914 173.833
RightUpLeg  -10.0731 -2.69685 -1.4356
RightLeg  0.398923 1.34715 -1.80894
RightFoot  -4.8574 -0.323078 5.10572
RightToes  2.91037e-010 0 -3.6325e-017
Spine  19.3788 -0.467882 -1.19283
Spine1  10.1475 -1.77259 3.08047
HEad  -12.1472 -1.69431 -1.28744
LeftShoulder1  -0.12765 3.85897 -29.8144
LeftArm  -11.6751 12.5361 -31.6272
LeftForeArm  81.1381 -79.2039 -95.5854
LeftHand  0.0743397 0.87759 -2.06051
RightShoulder  -0.636682 -5.33149 28.1172
RightArm  -9.3001 -18.7584 35.8829
RightForeArm  93.2267 75.3345 128.322
RightHand  -0.299203 2.89465 -4.41186
LeftUpLeg  23.4083 11.5395 3.94883
LeftLeg  14.6009 -7.65045 -3.20859
LeftFoot  -19.822 0.609426 6.59339
LeftToes  -7.53974e-010 3.3384e-011 -1.25048e-011
230
root  -9.12307 38.0029 6.98298 152.55 83.3918 164.84
RightUpLeg  -11.2172 -2.33509 -1.18121
RightLeg  -4.49377 -1.70833 -2.04693
RightFoot  -6.20954 -0.272652 5.01535
RightToes  2.91037e-010 0 -3.6325e-017
Spine  18.7838 0.890908 -4.16321
Spine1  9.63288 -1.47472 6.13211
HEad  -11.5628 -2.41613 -1.51653
LeftShoulder1  -0.167042 3.96531 -30.036
LeftArm  -12.0997 12.4219 -32.3195
LeftForeArm  81.0437 -79.226 -95.1582
LeftHand  0.081549 0.511347 -2.0243
RightShoulder  -0.666599 -5.3965 28.5229
RightArm  -9.70885 -19.2787 35.8625
RightForeArm  95.9075 74.7518 131.092
RightHand  -0.283143 3.06094 -4.11703
LeftUpLeg  27.0518 12.7438 5.54936
LeftLeg  14.6054 -9.56779 -4.30082
LeftFoot  -21.1785 0.577903 5.2595
LeftToes  -7.53974e-010 3.3384e-011 -1.25048e-011
231
root  -7.08628 37.5418 6.91199 156.884 83.1624 169.84
RightUpLeg  -11.6913 -1.95555 -0.306097
RightLeg  -2.48926 -3.57465 -1.81361
RightFoot  -5.84035 -0.19398 3.78831
RightToes  2.91037e-010 0 -3.6325e-017
Spine  18.9801 0.588071 -3.23496
Spine1  9.52343 -1.81087 6.76158
HEad  -11.1862 -2.34032 -2.32255
LeftShoulder1  -0.251069 4.19032 -30.443
LeftArm  -12.3074 12.7059 -32.458
LeftForeArm  81.7658 -79.1834 -96.3327
LeftHand  0.0625592 0.966123 -1.8058
RightShoulder  -0.670024 -5.42123 28.2359
RightArm  -9.83398 -19.4624 36.1919
RightForeArm  97.0225 74.392 132.57
RightHand  -0.326222 3.08689 -4.71591
LeftUpLeg  31.0586 12.9936 8.1081
LeftLeg  15.4407 -12.0215 -4.39345
LeftFoot  -22.3354 0.398445 2.72998
LeftToes  -7.53974e-010 3.3384e-011 -1.25048e-011
232
root  -5.03635 37.2204 6.71231 172.84 82.8391 -173.715
RightUpLeg  -13.1083 -1.85942 1.72359
RightLeg  4.66192 -4.65006 -1.11539
RightFoot  0.995956 0.159346 -1.40079
RightToes  2.91037e-010 0 -3.6325e-017
Spine  19.0235 -0.930069 1.17375
Spine1  10.0405 -2.31192 5.36695
HEad  -11.1291 -2.2879 -2.68213
LeftShoulder1  -0.282675 4.2743 -30.5555
LeftArm  -12.4807 13.6554 -31.9801
LeftForeArm  84.3677 -79.0795 -99.4896
LeftHand  0.0599861 0.898697 -1.70311
RightShoulder  -0.759446 -5.64564 28.8204
RightArm  -8.94811 -18.7074 35.5048
RightForeArm  96.6531 74.2337 133.048
RightHand  -0.372499 2.35059 -5.76988
LeftUpLeg  33.9391 11.3281 10.6456
LeftLeg  16.9466 -13.2557 -4.18858
LeftFoot  -22.0891 0.0612877 -0.721007
LeftToes  -7.53974e-010 3.3384e-011 -1.25048e-011
233
root  -2.97163 36.8706 6.49941 -166.574 82.2993 -152.682
RightUpLeg  -15.5173 -2.42972 4.37623
RightLeg  13.8824 -2.8976 -0.720538
RightFoot  8.51915 0.557972 -2.91518
RightToes  2.91037e-010 0 -3.6325e-017
Spine  19.1141 -2.43227 6.9659
Spine1  10.3035 -2.20355 3.59386
HEad  -11.8035 -2.47857 -2.95106
LeftShoulder1  -0.286886 4.28873 -30.4114
LeftArm  -12.1693 14.7149 -31.9522
LeftForeArm  85.0198 -79.0494 -100.253
LeftHand  0.0448927 0.829475 -1.27233
RightShoulder  -0.732463 -5.57879 28.6443
RightArm  -8.44502 -18.8055 34.9656
RightForeArm  97.878 74.129 133.595
RightHand  -0.319645 2.1531 -5.11119
LeftUpLeg  34.759 8.29297 12.9526
LeftLeg  21.8029 -12.4929 -5.13677
LeftFoot  -20.6825 -0.318461 -5.46934
LeftToes  -7.53974e-010 3.3384e-011 -1.25048e-011
234
root  -0.966136 36.5458 6.2885 -148.694 81.1941 -134.088
RightUpLeg  -16.5852 -4.75265 7.60224
RightLeg  22.6919 -0.630389 -0.575124
RightFoot  6.95523 0.696299 -4.08252
RightToes  2.91037e-010 0 -3.6325e-017
Spine  20.0808 -3.91391 12.4858
Spine1  9.67276 -1.84585 1.72867
HEad  -12.1753 -2.34595 -3.7175
LeftShoulder1  -0.273986 4.24586 -30.7924
LeftArm  -11.603 15.8396 -31.9978
LeftForeArm  82.6188 -79.1032 -98.0984
LeftHand  0.0435989 0.912194 -1.2789
RightShoulder  -0.652474 -5.36574 28.3223
RightArm  -7.66921 -18.1553 34.0623
RightForeArm  95.0322 74.5443 131.697
RightHand  -0.339811 1.76914 -5.67779
LeftUpLeg  32.5158 5.35384 14.854
LeftLeg  31.7301 -10.4049 -6.47519
LeftFoot  -14.7833 -0.20095 -11.3354
LeftToes  -7.53974e-010 3.3384e-011 -1.25048e-011
235
root  0.818921 36.3809 6.38782 -145.298 80.3769 -131.628
RightUpLeg  -18.3722 -4.11012 9.16743
RightLeg  29.4242 -1.79659 -1.36205
RightFoot  3.8622 1.04143 -7.54303
RightToes  2.91037e-010 0 -3.6325e-017
Spine  20.1531 -3.72041 12.3087
Spine1  9.44159 -1.98563 4.39637
HEad  -12.8724 -2.48545 -3.9173
LeftShoulder1  -0.233155 4.13261 -30.9536
LeftArm  -11.158 16.1895 -32.2623
LeftForeArm  80.3948 -79.1386 -96.1118
LeftHand  0.0335176 0.885167 -0.992442
RightShoulder  -0.556743 -5.12492 27.5755
RightArm  -7.20125 -17.0292 33.6973
RightForeArm  93.5038 74.7689 130.609
RightHand  -0.343852 1.41899 -6.00258
LeftUpLeg  24.5617 2.7317 14.2347
LeftLeg  45.0301 -5.92023 -5.79308
LeftFoot  0.457659 1.24764 -13.256
LeftToes  -7.53974e-010 3.3384e-011 -1.25048e-011
236
root  2.44886 36.2733 6.50171 -146.74 78.503 -133.813
RightUpLeg  -18.5798 -4.21365 10.4277
RightLeg  33.6167 -3.35983 -2.64966
RightFoot  -0.808113 0.701276 -7.63496
RightToes  2.91037e-010 0 -3.6325e-017
Spine  20.284 -3.97429 12.3675
Spine1  9.37818 -2.42837 6.62206
HEad  -14.1204 -3.15201 -3.57169
LeftShoulder1  -0.178721 3.98625 -30.8778
LeftArm  -10.4016 14.84 -32.3229
LeftForeArm  76.7264 -79.1483 -93.1792
LeftHand  0.0120491 1.36415 -0.579854
RightShoulder  -0.568085 -5.1709 27.3066
RightArm  -7.13119 -15.4281 33.1954
RightForeArm  91.6897 74.878 129.878
RightHand  -0.374721 1.49265 -6.46762
LeftUpLeg  14.8085 -0.757396 13.5754
LeftLeg  57.7137 -2.43401 -3.81354
LeftFoot  15.4002 2.10662 -9.02021
LeftToes  -7.53974e-010 3.3384e-011 -1.25048e-011
